<?xml version="1.0" standalone="no"?>
<!DOCTYPE svg PUBLIC "-//W3C//DTD SVG 20010904//EN"
 "http://www.w3.org/TR/2001/REC-SVG-20010904/DTD/svg10.dtd">
<svg version="1.0" xmlns="http://www.w3.org/2000/svg"
 width="1000.000000pt" height="1000.000000pt" viewBox="0 0 1000.000000 1000.000000"
 preserveAspectRatio="xMidYMid meet">
<metadata>
Created by potrace 1.11, written by Peter Selinger 2001-2013
</metadata>
<g transform="translate(0.000000,1000.000000) scale(0.100000,-0.100000)"
fill="#000000" stroke="none">
<path d="M3269 9528 c0 -7 -1 -1565 -2 -3463 -1 -2289 1 -3454 8 -3461 6 -5
17 -13 25 -16 18 -7 631 -374 646 -387 6 -5 31 -19 55 -31 24 -13 46 -25 49
-29 5 -6 10 -9 115 -69 33 -18 63 -39 67 -45 4 -7 8 -7 8 -2 0 7 3 7 8 0 4 -5
27 -21 52 -34 25 -14 51 -31 58 -38 7 -7 17 -13 22 -13 4 0 32 -16 61 -35 30
-19 59 -35 66 -35 7 0 13 -4 13 -10 0 -5 7 -10 15 -10 8 0 15 -4 15 -10 0 -5
4 -10 8 -10 8 0 164 -89 188 -107 5 -4 21 -14 35 -22 13 -8 39 -23 57 -34 l32
-19 0 44 c1 70 1 6606 0 6688 l-1 75 -52 33 c-49 31 -140 92 -162 110 -5 4
-44 31 -85 58 -167 112 -205 139 -208 147 -2 4 -9 7 -16 7 -7 0 -21 9 -31 20
-10 11 -24 20 -31 20 -7 0 -14 3 -16 8 -1 4 -39 32 -83 62 -44 30 -81 58 -83
62 -2 4 -9 8 -14 8 -6 0 -34 17 -62 38 -28 20 -58 42 -68 47 -9 6 -71 48 -138
95 -67 47 -130 90 -139 95 -9 6 -45 31 -81 56 -36 25 -80 54 -97 64 -18 11
-33 23 -33 27 0 4 -6 8 -13 8 -8 0 -24 11 -37 25 -13 14 -28 25 -33 25 -5 0
-32 16 -58 35 -54 39 -59 40 -60 23z"/>
<path d="M6680 9500 c-30 -21 -60 -39 -67 -40 -6 0 -13 -3 -15 -7 -5 -12 -95
-73 -106 -73 -6 0 -12 -3 -14 -7 -1 -5 -41 -33 -88 -63 -47 -30 -86 -58 -88
-62 -2 -5 -7 -8 -12 -8 -10 0 -133 -81 -142 -95 -4 -5 -8 -6 -8 -2 0 5 -18 -5
-39 -22 -21 -17 -43 -31 -47 -31 -5 0 -21 -10 -36 -23 -14 -12 -41 -31 -59
-42 -126 -77 -395 -254 -414 -272 -7 -7 -15 -9 -19 -6 -3 4 -6 2 -6 -3 0 -5
-22 -23 -50 -39 -27 -16 -50 -33 -50 -38 0 -4 -4 -5 -10 -2 -5 3 -10 1 -10 -4
0 -6 -5 -11 -10 -11 -6 0 -35 -18 -64 -40 -29 -22 -58 -40 -64 -40 -6 0 -17
-6 -24 -12 -20 -19 -105 -78 -113 -78 -3 0 -15 -9 -26 -19 l-21 -19 -1 -3395
c-2 -3013 0 -3394 13 -3389 8 3 88 47 177 99 90 51 167 93 173 93 5 0 10 4 10
9 0 5 14 15 32 22 18 7 57 29 87 49 30 19 58 34 63 32 4 -1 8 2 8 8 0 5 9 10
19 10 11 0 21 4 23 8 3 8 80 56 133 82 17 8 49 27 72 43 24 15 47 27 53 27 5
0 10 5 10 10 0 6 9 10 19 10 11 0 21 4 23 8 2 4 50 34 108 67 58 33 118 68
135 78 16 9 41 23 55 29 14 7 31 18 38 25 7 7 17 13 21 13 5 0 48 24 97 53 49
29 106 61 127 72 20 11 37 23 37 28 0 4 4 6 9 2 5 -3 12 -1 16 5 3 5 31 22 61
37 l54 26 0 3469 c0 1907 -3 3468 -7 3468 -5 -1 -33 -19 -63 -40z"/>
<path d="M2480 8434 c-63 -13 -165 -47 -205 -69 -122 -65 -221 -173 -263 -285
-49 -130 -46 90 -48 -3065 -1 -1612 2 -2952 6 -2980 5 -27 13 -68 20 -90 16
-58 13 -50 43 -128 19 -52 88 -149 139 -198 78 -74 206 -135 308 -146 70 -8
2370 -8 2370 0 0 4 -8 11 -17 15 -30 12 -118 66 -121 74 -2 4 -10 8 -18 8 -12
0 -54 23 -144 78 -14 9 -27 15 -29 13 -2 -1 -7 1 -10 6 -3 4 -22 16 -41 27
-35 19 -65 36 -155 88 -27 16 -58 32 -67 35 -10 3 -18 10 -18 15 0 5 -4 6 -10
3 -5 -3 -10 -1 -10 4 0 6 -7 11 -15 11 -8 0 -15 5 -15 10 0 6 -9 10 -19 10
-11 0 -21 4 -23 8 -1 5 -15 15 -29 23 -15 8 -51 27 -80 43 -30 16 -87 48 -127
73 -40 24 -83 48 -95 54 -12 5 -35 18 -52 29 -16 11 -37 23 -45 27 -8 4 -53
29 -100 56 -47 27 -110 63 -140 80 -107 59 -119 66 -159 91 -22 15 -44 26 -49
26 -4 0 -30 15 -57 33 -28 18 -65 39 -82 46 -18 7 -33 17 -33 22 0 5 -6 8 -12
6 -10 -1 -13 589 -15 2923 -1 1609 -3 2951 -3 2982 l0 58 -257 -1 c-172 -1
-280 -6 -323 -15z"/>
<path d="M6987 8443 c-4 -3 -7 -1339 -7 -2967 l0 -2961 -42 -23 c-24 -12 -48
-22 -55 -22 -6 0 -13 -4 -15 -9 -1 -4 -43 -30 -93 -56 -49 -26 -119 -65 -155
-85 -67 -38 -150 -83 -280 -153 -41 -21 -80 -44 -86 -49 -7 -5 -38 -22 -70
-39 -33 -16 -77 -40 -99 -52 -22 -12 -91 -50 -153 -84 -62 -35 -117 -63 -122
-63 -6 0 -10 -4 -10 -10 0 -5 -9 -10 -19 -10 -11 0 -21 -3 -23 -7 -3 -9 -42
-32 -108 -64 -25 -13 -61 -32 -80 -44 -19 -12 -69 -40 -110 -62 -327 -176
-360 -196 -341 -207 11 -6 46 -27 78 -46 31 -19 74 -45 95 -57 21 -13 101 -61
178 -107 77 -47 140 -82 140 -79 0 4 7 -2 15 -13 8 -10 15 -14 15 -9 0 6 3 6
8 0 6 -9 101 -68 224 -140 10 -5 57 -34 105 -64 48 -29 113 -67 143 -84 30
-17 57 -34 58 -39 2 -4 8 -8 14 -8 5 0 28 -13 51 -28 23 -15 53 -33 67 -40 25
-12 41 -21 90 -53 14 -9 41 -26 60 -36 19 -11 72 -43 118 -72 46 -28 86 -51
88 -51 3 0 24 -13 47 -29 23 -15 56 -35 74 -44 l31 -17 1 85 c1 47 2 93 2 103
0 97 0 310 0 320 0 13 0 142 0 170 0 9 0 80 0 157 0 77 0 145 1 150 0 6 -1 17
-3 25 -4 13 39 15 331 16 358 2 422 9 525 55 28 12 51 20 53 18 2 -2 8 4 13
14 6 9 16 17 24 17 19 0 136 122 160 167 11 21 24 41 28 44 5 3 8 9 8 13 -1 3
6 23 15 44 26 61 43 123 50 187 8 69 9 5781 1 5865 -9 94 -52 216 -97 275 -66
86 -163 162 -250 198 -133 55 -195 64 -448 65 -131 1 -242 -1 -245 -5z"/>
</g>
</svg>
